# xmcd
#
# Track frame offsets: 
#        150
#        18402
#        34406
#        49949
#        68303
#        87270
#        107752
#        125564
#        143718
#        164646
#        179952
#        194959
#        212287
#
# Disc length: 3006 seconds
#
# Revision: 0
# Processed by: cddbd v1.5.2PL0 Copyright (c) Steve Scherf et al.
# Submitted via: ExactAudioCopy v1.0b3
#
DISCID=c30bbc0d
DTITLE=Colin James - Fifteen
DYEAR=2012
DGENRE=Classic Rock
TTITLE0=Sweets Gone Sour
TTITLE1=I'm Diggin
TTITLE2=Fool For You
TTITLE3=Shed A Little Light
TTITLE4=I Need You Bad
TTITLE5=Love For Life
TTITLE6=Sneakin' Sally Through The Alley
TTITLE7=Jealous Guy
TTITLE8=Finally Wrote A Song For You
TTITLE9=No Time To Get There
TTITLE10=Stone Faith
TTITLE11=Oh Well
TTITLE12=Shoulder To Cry On
EXTD=
EXTT0=
EXTT1=
EXTT2=
EXTT3=
EXTT4=
EXTT5=
EXTT6=
EXTT7=
EXTT8=
EXTT9=
EXTT10=
EXTT11=
EXTT12=
PLAYORDER=
